<svg width="14" height="14" viewBox="0 0 14 14" fill="none" xmlns="http://www.w3.org/2000/svg">
<g id="vuesax/bold/gas-station">
<g id="gas-station">
<path id="Vector" d="M13.0315 5.44234L11.8648 4.859C11.649 4.754 11.3807 4.83567 11.2757 5.0515C11.1648 5.27317 11.2523 5.53567 11.4682 5.64067L12.3957 6.1015V8.89567L10.2082 8.9015V2.9165C10.2082 1.74984 9.4265 1.1665 8.45817 1.1665H3.7915C2.82317 1.1665 2.0415 1.74984 2.0415 2.9165V12.3957H1.1665C0.927337 12.3957 0.729004 12.594 0.729004 12.8332C0.729004 13.0723 0.927337 13.2707 1.1665 13.2707H11.0832C11.3223 13.2707 11.5207 13.0723 11.5207 12.8332C11.5207 12.594 11.3223 12.3957 11.0832 12.3957H10.2082V9.7765L12.8332 9.77067C13.0782 9.77067 13.2707 9.57234 13.2707 9.33317V5.83317C13.2707 5.66984 13.1773 5.51817 13.0315 5.44234ZM3.49984 4.019C3.49984 3.20817 3.99567 2.9165 4.60234 2.9165H7.65317C8.254 2.9165 8.74984 3.20817 8.74984 4.019V4.7365C8.74984 5.5415 8.254 5.83317 7.64734 5.83317H4.60234C3.99567 5.83317 3.49984 5.5415 3.49984 4.73067V4.019ZM3.7915 7.14567H5.5415C5.78067 7.14567 5.979 7.344 5.979 7.58317C5.979 7.82234 5.78067 8.02067 5.5415 8.02067H3.7915C3.55234 8.02067 3.354 7.82234 3.354 7.58317C3.354 7.344 3.55234 7.14567 3.7915 7.14567Z" fill="#90A3BF"/>
</g>
</g>
</svg>
