<svg width="29" height="28" viewBox="0 0 29 28" fill="none" xmlns="http://www.w3.org/2000/svg">
<g id="Upload / 24 / Outline">
<path id="Vector" d="M10.7141 8.76948L13.3188 6.15342V17.0612C13.3188 17.3629 13.4386 17.6522 13.6519 17.8655C13.8652 18.0788 14.1545 18.1987 14.4562 18.1987C14.7579 18.1987 15.0472 18.0788 15.2605 17.8655C15.4738 17.6522 15.5936 17.3629 15.5936 17.0612V6.15342L18.1983 8.76948C18.304 8.87609 18.4298 8.9607 18.5684 9.01845C18.707 9.07619 18.8557 9.10592 19.0059 9.10592C19.156 9.10592 19.3047 9.07619 19.4433 9.01845C19.5819 8.9607 19.7077 8.87609 19.8134 8.76948C19.92 8.66374 20.0047 8.53794 20.0624 8.39934C20.1201 8.26073 20.1499 8.11207 20.1499 7.96191C20.1499 7.81176 20.1201 7.66309 20.0624 7.52449C20.0047 7.38588 19.92 7.26008 19.8134 7.15435L15.2638 2.60468C15.1556 2.50113 15.028 2.41996 14.8884 2.36582C14.6115 2.25206 14.3009 2.25206 14.024 2.36582C13.8844 2.41996 13.7568 2.50113 13.6486 2.60468L9.09896 7.15435C8.99291 7.2604 8.90879 7.3863 8.8514 7.52486C8.794 7.66342 8.76446 7.81193 8.76446 7.96191C8.76446 8.11189 8.794 8.2604 8.8514 8.39896C8.90879 8.53753 8.99291 8.66343 9.09896 8.76948C9.20502 8.87553 9.33092 8.95965 9.46948 9.01705C9.60804 9.07444 9.75655 9.10398 9.90653 9.10398C10.0565 9.10398 10.205 9.07444 10.3436 9.01705C10.4821 8.95965 10.608 8.87553 10.7141 8.76948ZM24.6929 13.649C24.3913 13.649 24.102 13.7688 23.8887 13.9821C23.6754 14.1954 23.5555 14.4847 23.5555 14.7864V21.6109C23.5555 21.9126 23.4357 22.2019 23.2224 22.4152C23.0091 22.6285 22.7198 22.7483 22.4181 22.7483H6.49428C6.19262 22.7483 5.90331 22.6285 5.69001 22.4152C5.4767 22.2019 5.35686 21.9126 5.35686 21.6109V14.7864C5.35686 14.4847 5.23703 14.1954 5.02372 13.9821C4.81042 13.7688 4.52111 13.649 4.21945 13.649C3.91779 13.649 3.62848 13.7688 3.41517 13.9821C3.20187 14.1954 3.08203 14.4847 3.08203 14.7864V21.6109C3.08203 22.5159 3.44154 23.3838 4.08146 24.0237C4.72138 24.6637 5.5893 25.0232 6.49428 25.0232H22.4181C23.3231 25.0232 24.191 24.6637 24.8309 24.0237C25.4709 23.3838 25.8304 22.5159 25.8304 21.6109V14.7864C25.8304 14.4847 25.7105 14.1954 25.4972 13.9821C25.2839 13.7688 24.9946 13.649 24.6929 13.649Z" fill="rgba(131, 62, 255, 1)"/>
</g>
</svg>
